<svg xmlns="http://www.w3.org/2000/svg" xmlns:xlink="http://www.w3.org/1999/xlink" xmlns:lucid="lucid" width="2683" height="1563"><g transform="translate(2061.5 901.5)" lucid:page-tab-id="0_0"><path d="M-2500-1000h3500v2000h-3500z" fill="#fff"/><path d="M-2060-894a6 6 0 0 1 6-6H614a6 6 0 0 1 6 6V654a6 6 0 0 1-6 6h-2668a6 6 0 0 1-6-6z" stroke="#242f3e" stroke-width="3" fill="#fff" fill-opacity="0"/><path d="M-2060-900h56v56h-56v-56z" stroke="#fff" stroke-opacity="0" fill="#242f3e"/><path d="M-2019.12-858.78h-25c-4.13.05-7.57-3.1-7.9-7.2v-.64c-.15-3.4 1.97-6.38 5.25-7.36v-.66c.12-4.22 2.44-7.75 6.24-9.57 4.13-1.86 8.73-.96 11.8 2.3 1.1 1.1 1.85 2.2 2.45 3.6 1.2-1 2.72-1.32 4.24-.9 2.24.8 3.68 2.74 3.76 5.1 3.68.65 6.32 3.8 6.28 7.56 0 7.07-7.04 7.73-7.12 7.76zm-26.7-13.88c-2.83.6-4.75 3.14-4.6 6.04v.53c.3 3.33 3.1 5.84 6.4 5.76h24.98c3.04-.3 5.4-2.64 5.68-5.7.28-3.43-2.24-6.5-5.68-6.78-.44-.05-.72-.44-.64-.87.08-1.83-1-3.44-2.72-4.13-1.32-.37-2.64.13-3.44 1.24-.2.25-.44.38-.76.33-.28-.05-.48-.24-.6-.5-.6-1.6-1.4-2.85-2.6-4.04-2.68-2.8-6.6-3.6-10.13-2-3.24 1.6-5.2 4.63-5.32 8.24-.04.4-.04.74 0 1.14.04.4-.2.76-.6.84z" stroke="#fff" stroke-opacity="0" fill="#fff"/><use xlink:href="#a" transform="matrix(1,0,0,1,-1989,-880) translate(0 21.52777777777778)"/><use xlink:href="#b" transform="matrix(1,0,0,1,-1989,-880) translate(91.92708333333331 21.52777777777778)"/><path d="M-1120-554a6 6 0 0 1 6-6h568a6 6 0 0 1 6 6v668a6 6 0 0 1-6 6h-568a6 6 0 0 1-6-6z" fill="#fff" fill-opacity="0"/><path d="M-1096.25-560h11.83m11.84 0h11.83m11.83 0h11.84m11.83 0h11.83m11.84 0h11.83m11.83 0h11.84m11.83 0h11.83m11.84 0h11.83m11.83 0h11.84m11.83 0h11.83m11.84 0h11.83m11.83 0h11.84m11.83 0h11.83m11.84 0h11.83m11.83 0h11.84m11.83 0h11.83m11.84 0h11.83m11.83 0h11.84m11.83 0h11.83m11.84 0h11.83m11.83 0h11.84m11.83 0h11.83m11.84 0h11.83m11.83 0h5.92a6 6 0 0 1 6 6v5.96m0 11.93v11.92m0 11.93v11.93m0 11.93v11.94m0 11.92v11.93m0 11.92v11.93m0 11.93v11.93m0 11.94v11.92m0 11.93v11.92m0 11.93v11.93m0 11.93v11.94m0 11.92v11.93m0 11.92v11.93m0 11.93v11.93m0 11.94v11.92m0 11.93v11.92m0 11.93v11.93m0 11.93v11.94m0 11.92v11.93m0 11.92v11.93m0 11.93v11.93m0 11.94v11.92m0 11.93v11.92m0 11.93V.68m0 11.93v11.94m0 11.92V48.4m0 11.92v11.93m0 11.93V96.1m0 11.94V114a6 6 0 0 1-6 6h-5.92m-11.83 0h-11.83m-11.84 0h-11.83m-11.83 0h-11.84m-11.83 0h-11.83m-11.84 0h-11.83m-11.83 0h-11.84m-11.83 0h-11.83m-11.84 0h-11.83m-11.83 0h-11.84m-11.83 0h-11.83m-11.84 0h-11.83m-11.83 0h-11.84m-11.83 0h-11.83m-11.84 0h-11.83m-11.83 0h-11.84m-11.83 0h-11.83m-11.84 0h-11.83m-11.83 0h-11.84m-11.83 0h-11.83m-11.84 0h-11.83m-11.83 0h-11.84m-11.83 0h-11.83m-11.84 0h-11.83m-11.83 0h-5.92a6 6 0 0 1-6-6v-5.96m0-11.93V84.2m0-11.93V60.32m0-11.93V36.45m0-11.92V12.6m0-11.92v-11.93m0-11.93V-35.1m0-11.94v-11.92m0-11.93V-82.8m0-11.93v-11.93m0-11.93v-11.94m0-11.92v-11.93m0-11.92v-11.93m0-11.93v-11.93m0-11.94v-11.92m0-11.93v-11.92m0-11.93v-11.93m0-11.93v-11.94m0-11.92v-11.93m0-11.92v-11.93m0-11.93v-11.93m0-11.94v-11.92m0-11.93v-11.92m0-11.93v-11.93m0-11.93v-11.94m0-11.92v-11.93m0-11.92v-11.93m0-11.93v-11.93m0-11.94V-554a6 6 0 0 1 6-6h5.92" stroke="#00a4a6" stroke-width="3" fill="none"/><use xlink:href="#c" transform="matrix(1,0,0,1,-1120,-540) translate(204.24696180555557 21.52777777777778)"/><use xlink:href="#d" transform="matrix(1,0,0,1,-1120,-540) translate(322.36762152777777 21.52777777777778)"/><path d="M-240-550.5a6 6 0 0 1 6-6h518a6 6 0 0 1 6 6V114a6 6 0 0 1-6 6h-518a6 6 0 0 1-6-6z" fill="#fff" fill-opacity="0"/><path d="M-216.34-556.5h11.77m11.78 0H-181m11.77 0h11.77m11.77 0h11.77m11.77 0h11.77m11.8 0h11.76m11.77 0h11.77m11.78 0h11.77m11.77 0h11.78m11.77 0H7.34m11.77 0h11.8m11.76 0h11.77m11.77 0h11.78m11.77 0h11.77m11.78 0h11.77m11.77 0h11.77m11.8 0h11.76m11.77 0h11.78m11.78 0h11.77m11.77 0h11.77m11.77 0h11.77m11.77 0h5.9a6 6 0 0 1 6 6v5.93m0 11.87v11.87m0 11.86v11.87m0 11.86v11.87m0 11.87v11.86m0 11.87v11.86m0 11.86v11.87m0 11.86v11.86m0 11.86v11.87m0 11.86v11.86m0 11.87v11.85m0 11.87v11.87m0 11.85v11.87m0 11.86v11.87m0 11.87v11.86m0 11.87v11.86m0 11.88v11.87m0 11.86v11.88m0 11.87v11.86m0 11.88v11.86m0 11.87v11.88m0 11.86v11.87m0 11.87v11.87m0 11.87V1.28m0 11.87V25m0 11.87v11.87m0 11.86v11.87m0 11.86V96.2m0 11.87V114a6 6 0 0 1-6 6h-5.9m-11.76 0h-11.77m-11.78 0H231m-11.77 0h-11.77m-11.77 0h-11.77m-11.77 0H160.4m-11.8 0h-11.76m-11.77 0H113.3m-11.78 0H89.75m-11.77 0H66.2m-11.77 0H42.66m-11.77 0H19.1m-11.76 0H-4.43m-11.77 0h-11.78m-11.77 0h-11.77m-11.77 0h-11.77m-11.77 0H-98.6m-11.8 0h-11.76m-11.77 0h-11.78m-11.78 0h-11.77m-11.77 0h-11.77m-11.77 0h-11.77m-11.77 0h-5.9a6 6 0 0 1-6-6v-5.93m0-11.87V84.33m0-11.86V60.6m0-11.86V36.87m0-11.87V13.14m0-11.87V-10.6m0-11.86v-11.87m0-11.86v-11.86m0-11.86V-81.8m0-11.86v-11.86m0-11.87v-11.85m0-11.87V-153m0-11.85v-11.87m0-11.87v-11.85m0-11.87v-11.86m0-11.87v-11.86m0-11.88v-11.87m0-11.86v-11.88m0-11.87v-11.86m0-11.88v-11.86m0-11.87v-11.88m0-11.86v-11.87m0-11.87v-11.87m0-11.87v-11.87m0-11.87v-11.86m0-11.87v-11.87m0-11.86v-11.87m0-11.87v-11.86m0-11.87v-5.93a6 6 0 0 1 6-6h5.9" stroke="#00a4a6" stroke-width="3" fill="none"/><use xlink:href="#c" transform="matrix(1,0,0,1,-240,-536.5) translate(179.24696180555557 21.52777777777778)"/><use xlink:href="#d" transform="matrix(1,0,0,1,-240,-536.5) translate(297.36762152777777 21.52777777777778)"/><path d="M-1440-694a6 6 0 0 1 6-6H454a6 6 0 0 1 6 6V374a6 6 0 0 1-6 6h-1888a6 6 0 0 1-6-6z" stroke="#7aa116" stroke-width="3" fill="#fff" fill-opacity="0"/><path d="M-1440-700h56v56h-56v-56z" stroke="#fff" stroke-opacity="0" fill="#7aa116"/><path d="M-1396.62-677.82c-.15-.17-.34-.25-.56-.25h-5.15v-5.58c-.03-2.54-.97-4.7-2.84-6.4-1.9-1.84-4.15-2.75-6.77-2.75-2.65 0-4.9.83-6.8 2.62-1.9 1.7-2.87 3.87-2.9 6.4v5.66h-5.15c-.24 0-.43.1-.58.25-.16.17-.22.34-.22.6V-652c0 .43.34.8.8.8h29.6c.46 0 .8-.37.8-.8v-25.28c0-.2-.06-.38-.22-.54zm-23.46-5.9c.03-2.13.8-3.88 2.37-5.3 1.6-1.5 3.52-2.2 5.73-2.2 2.22 0 4.12.75 5.7 2.25 1.54 1.4 2.32 3.2 2.32 5.32v5.58h-16.16zm22.1 30.94h-28.03v-23.7h28z" stroke="#fff" stroke-opacity="0" fill="#fff"/><path d="M-1412.8-662.7v6.25h1.6v-6.23c2.13-.4 3.62-2.2 3.63-4.35 0-2.43-1.97-4.4-4.4-4.43-2.2-.03-4.07 1.5-4.44 3.68-.42 2.4 1.2 4.68 3.6 5.1zm.82-7.15c.78 0 1.44.27 2 .83.54.55.82 1.2.8 2 .03 1.54-1.2 2.8-2.74 2.8h-.06c-1.56.13-2.92-1.04-3.04-2.6-.12-1.56 1.05-2.93 2.6-3.03.16-.02.3-.02.44 0z" stroke="#fff" stroke-opacity="0" fill="#fff"/><use xlink:href="#e" transform="matrix(1,0,0,1,-1369,-680) translate(0 21.52777777777778)"/><use xlink:href="#f" transform="matrix(1,0,0,1,-1369,-680) translate(70.64887152777777 21.52777777777778)"/><path d="M-940-300h240v240h-240v-240z" stroke="#000" stroke-opacity="0" fill="#ed7100"/><path d="M-858.98-141.02h74.93v-74.93h-74.93v74.93zm80.98-74.93h11.93v5.88H-778v12.1h11.93v6.04H-778v8.9h11.93v6.05H-778v11.93h11.93v6.05H-778v11.93h11.93v6.05H-778v.5c0 3.02-2.52 5.54-5.54 5.54h-.5v11.93h-5.9v-11.93H-802v11.93h-6.05v-11.93h-8.9v11.93h-6.05v-11.93h-11.93v11.93H-841v-11.93h-11.93v11.93h-6.05v-11.93h-.5c-3.02 0-5.54-2.52-5.54-5.54v-.5h-8.9v-6.05h8.9V-159h-8.9v-6.05h8.9v-11.93h-8.9v-6.04h8.9v-8.9h-8.9V-198h8.9v-12.1h-8.9v-5.87h8.9v-.5c0-3.03 2.52-5.55 5.54-5.55h.5v-11.93h6.05V-222H-841v-11.93h6.05V-222h11.93v-11.93h6.04V-222h8.9v-11.93h6.06V-222h12.1v-11.93h5.87V-222h.5c3.03 0 5.55 2.52 5.55 5.54v.5zm-38.98 113.57c0 .16-.16.33-.33.33h-80.32c-.16 0-.33-.17-.33-.33v-80.3c0-.18.17-.34.33-.34h17.64v-6.05h-17.64c-3.52 0-6.38 2.85-6.38 6.38v80.32c0 3.52 2.86 6.38 6.38 6.38h80.3c3.54 0 6.4-2.86 6.4-6.38V-117H-817v14.62zM-736-257.62v80.3c0 3.54-2.86 6.4-6.38 6.4h-17.64V-177h17.64c.16 0 .33-.16.33-.33v-80.32c0-.16-.17-.33-.33-.33h-80.3c-.18 0-.34.17-.34.33v17.64h-6.05v-17.64c0-3.52 2.85-6.38 6.38-6.38h80.32c3.52 0 6.38 2.86 6.38 6.38z" stroke="#000" stroke-opacity="0" fill="#fff"/><use xlink:href="#a" transform="matrix(1,0,0,1,-970,-51) translate(82.46527777777779 21.52777777777778)"/><use xlink:href="#g" transform="matrix(1,0,0,1,-970,-51) translate(174.3923611111111 21.52777777777778)"/><path d="M-95-320h240v240H-95v-240z" stroke="#000" stroke-opacity="0" fill="#ed7100"/><path d="M-13.98-161.02h74.93v-74.93h-74.93v74.93zM67-235.95h11.93v5.88H67v12.1h11.93v6.04H67v8.9h11.93v6.05H67v11.93h11.93v6.05H67v11.93h11.93v6.05H67v.5c0 3.02-2.52 5.54-5.54 5.54h-.5v11.93h-5.9v-11.93H43v11.93h-6.05v-11.93h-8.9v11.93h-6.05v-11.93H10.05v11.93H4v-11.93H-7.93v11.93h-6.05v-11.93h-.5c-3.02 0-5.54-2.52-5.54-5.54v-.5h-8.9v-6.05h8.9V-179h-8.9v-6.05h8.9v-11.93h-8.9v-6.04h8.9v-8.9h-8.9V-218h8.9v-12.1h-8.9v-5.87h8.9v-.5c0-3.03 2.52-5.55 5.54-5.55h.5v-11.93h6.05V-242H4v-11.93h6.05V-242h11.93v-11.93h6.04V-242h8.9v-11.93H43V-242h12.1v-11.93h5.87V-242h.5c3.03 0 5.55 2.52 5.55 5.54v.5zM28.02-122.38c0 .16-.16.33-.33.33h-80.32c-.16 0-.33-.17-.33-.33v-80.3c0-.18.17-.34.33-.34h17.64v-6.05h-17.64c-3.52 0-6.38 2.85-6.38 6.38v80.32c0 3.52 2.86 6.38 6.38 6.38h80.3c3.54 0 6.4-2.86 6.4-6.38V-137H28v14.62zM109-277.62v80.3c0 3.54-2.86 6.4-6.38 6.4H84.98V-197h17.64c.16 0 .33-.16.33-.33v-80.32c0-.16-.17-.33-.33-.33h-80.3c-.18 0-.34.17-.34.33v17.64h-6.05v-17.64c0-3.52 2.85-6.38 6.38-6.38h80.32c3.52 0 6.38 2.86 6.38 6.38z" stroke="#000" stroke-opacity="0" fill="#fff"/><use xlink:href="#a" transform="matrix(1,0,0,1,-125,-71) translate(82.46527777777779 21.52777777777778)"/><use xlink:href="#g" transform="matrix(1,0,0,1,-125,-71) translate(174.3923611111111 21.52777777777778)"/><path d="M-1734.08-129.28h-4.08v-48.36c0-1.08-.72-2.04-1.68-2.52l-.24-.12c-5.52-2.4-11.16-5.04-19.32-5.04-8.52 0-14.76 2.76-21 5.88-.96.48-1.56 1.44-1.56 2.4v47.76h-3.96v-51.6c6.72-5.4 16.32-8.52 26.52-8.52 9.6 0 18.72 2.76 25.32 7.56v52.56zm-25.32-65.52c-12 0-23.4 3.84-31.08 10.56-.6.6-.84 1.32-.84 2.04v55.56c0 1.56 1.2 2.76 2.64 2.76h9.48c1.56 0 2.76-1.2 2.76-2.76v-48.72c5.28-2.52 10.32-4.44 17.04-4.44 6.36 0 11.04 1.8 15.72 3.96v49.2c0 1.56 1.2 2.76 2.76 2.76h9.6c1.44 0 2.64-1.2 2.64-2.76v-56.64c0-.72-.36-1.56-.96-2.04-7.56-6.12-18.48-9.48-29.76-9.48zm-.6 89.28c-30.12 0-54.48-24.36-54.48-54.48 0-30.12 24.36-54.48 54.48-54.48 30.12 0 54.48 24.36 54.48 54.48 0 30.12-24.36 54.48-54.48 54.48zm0-114.48c-33.12 0-60 26.88-60 60 0 33.12 26.88 60 60 60 33.12 0 60-26.88 60-60 0-33.12-26.88-60-60-60z" stroke="#000" stroke-opacity="0" fill="#8c4fff"/><use xlink:href="#h" transform="matrix(1,0,0,1,-1850,-91) translate(2.0171440972222285 21.52777777777778)"/><use xlink:href="#i" transform="matrix(1,0,0,1,-1850,-91) translate(89.44118923611111 21.52777777777778)"/><path d="M-400-676.5c33.12 0 60 26.88 60 60 0 33.12-26.88 60-60 60-33.12 0-60-26.88-60-60 0-33.12 26.88-60 60-60zm0 114.6c30.12 0 54.6-24.48 54.6-54.6s-24.48-54.6-54.6-54.6-54.6 24.48-54.6 54.6 24.48 54.6 54.6 54.6zm9.96-21l3.84 3.84-11.88 11.88c-.48.6-1.2.84-1.92.84s-1.44-.24-1.92-.84l-11.88-11.88 3.84-3.84 7.2 7.2v-80.88l-6.96 8.28-4.2-3.6 11.88-13.8c.96-1.2 3.12-1.2 4.08 0l11.88 13.8-4.2 3.6-6.96-8.28v80.88zm41.4-36.36v5.52h-36.84l7.2 7.2-3.84 3.84-11.88-11.88c-1.08-1.08-1.08-2.76 0-3.84l11.88-11.88 3.84 3.84-7.2 7.2zm-57.36 4.68l-11.76 11.88-3.96-3.84 7.2-7.2h-36.84v-5.52h36.84l-7.2-7.2 3.96-3.84 11.76 11.88c1.08 1.08 1.08 2.76 0 3.84z" stroke="#000" stroke-opacity="0" fill="#4d27aa"/><use xlink:href="#j" transform="matrix(1,0,0,1,-490,-547.5) translate(29.588758680555557 21.52777777777778)"/><use xlink:href="#k" transform="matrix(1,0,0,1,-490,-547.5) translate(81.59613715277777 21.52777777777778)"/><path d="M-460.5-616.02h-32.73l-.88.06-.86.2-.8.34-.74.45-.66.56-.56.65-.45.74-.33.8-.2.84-.07.88v384.5l-.08 1-.24.98-.38.94-.53.87-.67.78-.77.66-.87.53-.95.4-1 .23-.98.07h-16.9v-.94h16.86l.88-.07.86-.2.8-.34.74-.45.66-.56.56-.65.45-.74.33-.8.2-.84.07-.88v-384.5l.08-1 .24-.98.38-.94.53-.87.67-.78.77-.66.87-.53.95-.4 1-.23.98-.08h32.77z" stroke="#3a414a" stroke-width=".05" fill="#3a414a"/><path d="M-460-616.5l.02.48h-.53v-.96h.52z" fill="#3a414a"/><path stroke="#3a414a" stroke-width=".05" fill="#3a414a"/><path d="M-522.62-215.37l-14.26-4.63 14.26-4.63z" fill="#3a414a"/><path d="M-522.14-214.7l-16.28-5.3 16.28-5.3zm-13.2-5.3l12.25 3.98v-7.96zM-295.74-616.9l1 .24.93.4.86.52.77.66.66.77.52.86.4.94.23 1 .08.98v383.13l.06.9.2.84.33.8.45.74.56.66.66.56.74.45.8.34.85.2.87.06h26.85v.95h-26.9l-.98-.07-1-.24-.93-.4-.86-.53-.77-.66-.66-.76-.52-.87-.4-.94-.23-.98-.08-1v-383.13l-.06-.88-.2-.85-.33-.8-.45-.75-.56-.66-.66-.57-.74-.45-.8-.33-.85-.2-.87-.07h-42.73v-.96h42.77z" stroke="#3a414a" stroke-width=".05" fill="#3a414a"/><path d="M-339.5-616.02h-.52l.02-.48-.02-.48h.53z" fill="#3a414a"/><path stroke="#3a414a" stroke-width=".05" fill="#3a414a"/><path d="M-243.12-221.37l-14.26 4.64V-226z" fill="#3a414a"/><path d="M-241.58-221.37l-16.28 5.3v-10.6zm-15.33 3.98l12.24-3.97-12.25-3.98zM-399.52-165.98l-.08 1-.24.98-.4.94-.52.87-.66.78-.77.66-.86.53-.94.4-1 .23-.98.07h-1277.64v-.94h1277.6l.88-.07.85-.2.8-.34.75-.45.66-.56.57-.65.45-.74.33-.8.2-.84.07-.88V-523.5h.96zm0-378.52h-.96V-556h.96z" stroke="#3a414a" stroke-width=".05" fill="#3a414a"/><path d="M-400-556.5l.48-.02v.53h-.96v-.52z" fill="#3a414a"/><path stroke="#3a414a" stroke-width=".05" fill="#3a414a"/><path d="M-1684.12-155.37l-14.26-4.63 14.26-4.63z" fill="#3a414a"/><path d="M-1683.64-154.7l-16.28-5.3 16.28-5.3zm-13.2-5.3l12.25 3.98v-7.96z" stroke="#3a414a" stroke-width=".05" fill="#3a414a"/><path d="M-1820-780h120v120h-120v-120z" stroke="#fff" stroke-opacity="0" fill="#693cc5"/><path d="M-1761.68-705.57h-22.42c-8.8 0-15.45-5.83-15.93-13.92v-1.1c-.24-6.93 4.16-12.98 10.9-14.82v-1.26c.23-12.1 10.16-21.65 22.25-21.44 5.92.1 11.05 2.3 15.2 6.62 2.17 2.16 3.77 4.36 5.05 7.2 1.84-1.47 3.85-2.2 6.17-2.2 4.64 0 9.6 3.3 10.4 10.72 4.17.78 7.37 2.73 10.1 5.93l-2.5 2c-2.55-2.9-5.6-4.52-9.28-5.1-.8-.1-1.36-.68-1.36-1.47-.4-6.15-4-8.88-7.36-8.88-2.24 0-4.17 1-5.45 2.78-.4.48-.97.74-1.53.64-.64-.1-1.04-.48-1.28-1.05-1.13-3.26-2.73-5.84-5.2-8.26-3.54-3.6-7.78-5.5-12.9-5.66-10.25-.26-18.82 7.88-19.14 18.18 0 .8.08 1.47.16 2.26.08.8-.4 1.52-1.2 1.74-3.6.9-9.77 3.67-9.77 12.08v.9c.4 6.4 5.7 10.93 12.8 10.93h22.43z" stroke="#fff" stroke-opacity="0" fill="#fff"/><path d="M-1739.3-681.98c-18.97 0-19.2-21.32-19.2-21.52V-723c0-.7.4-1.28 1.04-1.48l17.6-6.53c.37-.16.76-.16 1.14 0l17.6 6.52c.64.2 1.02.8 1.02 1.48v20.68c0 .2-.23 20.34-19.2 20.34zm-16-39.9v18.38c0 .74.22 18.32 16 18.32 15.8 0 16.02-16.45 16.02-17.14v-19.55l-16.02-5.95z" stroke="#fff" stroke-opacity="0" fill="#fff"/><path d="M-1739.3-687.97c-10.17 0-12.68-12.9-12.8-13.44v-16.88c0-.7.4-1.23 1.02-1.5l11.2-4.42c.38-.15.8-.15 1.17 0l11.18 4.43c.65.26 1.03.8 1.03 1.5v16.86c-.12.53-2.63 13.43-12.8 13.43zm-9.6-13.92c.25 1.25 2.56 10.73 9.6 10.73 7.07 0 9.35-9.48 9.6-10.72v-15.3l-9.6-3.77-9.6 3.78z" stroke="#fff" stroke-opacity="0" fill="#fff"/><g><use xlink:href="#a" transform="matrix(1,0,0,1,-1850,-651) translate(21.15776909722223 21.52777777777778)"/><use xlink:href="#l" transform="matrix(1,0,0,1,-1850,-651) translate(113.08485243055554 21.52777777777778)"/></g><path d="M-1759.53-236.38h-.94V-627h.94zm0-411.62h-.94v-11.5h.94z" stroke="#3a414a" stroke-width=".05" fill="#3a414a"/><path d="M-1759.53-659.5h-.94v-.5h.94z" fill="#3a414a"/><path stroke="#3a414a" stroke-width=".05" fill="#3a414a"/><path d="M-1760-221.62l-4.63-14.26h9.27z" fill="#3a414a"/><path d="M-1760-220.08l-5.3-16.28h10.6zm-3.98-15.33l3.98 12.25 3.98-12.26z" stroke="#3a414a" stroke-width=".05" fill="#3a414a"/><defs><path d="M52 0l541-1490h220L1361 0h-200l-149-416H398L254 0H52zm404-582h497c-103-290-145-390-251-756-108 377-145 460-246 756" id="m"/><path d="M158 0v-1118h175l1 205c55-151 181-225 313-225 147 0 245 90 285 228 53-141 190-228 352-228 194 0 352 125 352 384V0h-181v-749c0-161-105-225-225-225-151 0-243 103-243 244V0H807v-767c0-124-93-207-219-207-131 0-250 92-250 270V0H158" id="n"/><path d="M471 26C259 26 90-98 90-318c0-256 228-303 435-329 202-27 287-16 287-108 0-139-79-219-234-219-161 0-248 86-283 164l-173-57c86-203 278-265 451-265 150 0 419 46 419 395V0H815v-152h-12C765-73 660 26 471 26zm31-159c199 0 310-134 310-271v-155c-30 35-226 55-295 64-131 17-246 59-246 186 0 116 97 176 231 176" id="o"/><path d="M126 0v-134l627-806v-11H146v-167h839v143L376-178v11h629V0H126" id="p"/><path d="M613 24c-304 0-509-231-509-576 0-350 205-580 509-580 305 0 511 230 511 580 0 345-206 576-511 576zm0-161c226 0 329-195 329-415 0-222-103-419-329-419-223 0-326 196-326 419 0 220 103 415 326 415" id="q"/><path d="M338-670V0H158v-1118h173l1 207c72-158 192-221 342-221 226 0 378 139 378 422V0H872v-695c0-172-96-275-252-275-161 0-282 109-282 300" id="r"/><g id="a"><use transform="matrix(0.010850694444444444,0,0,0.010850694444444444,0,0)" xlink:href="#m"/><use transform="matrix(0.010850694444444444,0,0,0.010850694444444444,15.33203125,0)" xlink:href="#n"/><use transform="matrix(0.010850694444444444,0,0,0.010850694444444444,34.79817708333333,0)" xlink:href="#o"/><use transform="matrix(0.010850694444444444,0,0,0.010850694444444444,47.27647569444444,0)" xlink:href="#p"/><use transform="matrix(0.010850694444444444,0,0,0.010850694444444444,59.22309027777778,0)" xlink:href="#q"/><use transform="matrix(0.010850694444444444,0,0,0.010850694444444444,72.54774305555554,0)" xlink:href="#r"/></g><path d="M783 20c-382 0-661-292-661-764 0-473 279-766 661-766 302 0 548 182 601 489h-190c-42-204-217-313-411-313-268 0-476 208-476 590 0 381 209 588 476 588 195 0 369-110 411-313h190c-52 303-296 489-601 489" id="s"/><path d="M338-1490V0H158v-1490h180" id="t"/><path d="M537 14c-226 0-379-139-379-422v-710h180v695c0 172 97 275 253 275 160 0 281-109 281-300v-670h181V0H879v-209C806-46 684 14 537 14" id="u"/><path d="M577 24c-279 0-473-224-473-580 0-354 195-576 474-576 218 0 287 134 324 193h14v-551h180V0H922v-173h-20C865-111 790 24 577 24zm27-161c203 0 314-172 314-421 0-247-108-413-314-413-212 0-317 181-317 413 0 235 108 421 317 421" id="v"/><g id="b"><use transform="matrix(0.010850694444444444,0,0,0.010850694444444444,0,0)" xlink:href="#s"/><use transform="matrix(0.010850694444444444,0,0,0.010850694444444444,16.23263888888889,0)" xlink:href="#t"/><use transform="matrix(0.010850694444444444,0,0,0.010850694444444444,21.614583333333336,0)" xlink:href="#q"/><use transform="matrix(0.010850694444444444,0,0,0.010850694444444444,34.939236111111114,0)" xlink:href="#u"/><use transform="matrix(0.010850694444444444,0,0,0.010850694444444444,48.07942708333333,0)" xlink:href="#v"/></g><path d="M481 0L54-1118h197c107 314 236 620 325 951 87-331 217-637 324-951h197L670 0H481" id="w"/><path d="M158 0v-1118h180V0H158zm91-1301c-68 0-125-53-125-119s57-119 125-119c69 0 126 53 126 119s-57 119-126 119" id="x"/><path d="M677 24c-213 0-288-135-325-197h-20V0H158v-1490h180v551h14c37-59 106-193 324-193 279 0 474 222 474 576 0 356-194 580-473 580zm-27-161c209 0 317-186 317-421 0-232-105-413-317-413-206 0-314 166-314 413 0 249 111 421 314 421" id="y"/><path d="M598-1118v154H368v674c0 100 37 144 132 144 23 0 62-6 92-12L629-6c-37 13-88 20-134 20-193 0-307-107-307-290v-688H20v-154h168v-266h180v266h230" id="z"/><path d="M140 405l46-156c120 36 205 19 263-150l32-93L54-1118h197c107 313 237 620 324 950 87-331 219-637 326-950h196L606 167c-68 178-176 259-334 259-64 0-113-12-132-21" id="A"/><g id="c"><use transform="matrix(0.010850694444444444,0,0,0.010850694444444444,0,0)" xlink:href="#m"/><use transform="matrix(0.010850694444444444,0,0,0.010850694444444444,13.823784722222221,0)" xlink:href="#w"/><use transform="matrix(0.010850694444444444,0,0,0.010850694444444444,26.204427083333332,0)" xlink:href="#o"/><use transform="matrix(0.010850694444444444,0,0,0.010850694444444444,38.68272569444444,0)" xlink:href="#x"/><use transform="matrix(0.010850694444444444,0,0,0.010850694444444444,44.064670138888886,0)" xlink:href="#t"/><use transform="matrix(0.010850694444444444,0,0,0.010850694444444444,49.44661458333333,0)" xlink:href="#o"/><use transform="matrix(0.010850694444444444,0,0,0.010850694444444444,61.92491319444444,0)" xlink:href="#y"/><use transform="matrix(0.010850694444444444,0,0,0.010850694444444444,75.53168402777777,0)" xlink:href="#x"/><use transform="matrix(0.010850694444444444,0,0,0.010850694444444444,80.91362847222221,0)" xlink:href="#t"/><use transform="matrix(0.010850694444444444,0,0,0.010850694444444444,86.29557291666666,0)" xlink:href="#x"/><use transform="matrix(0.010850694444444444,0,0,0.010850694444444444,91.67751736111111,0)" xlink:href="#z"/><use transform="matrix(0.010850694444444444,0,0,0.010850694444444444,99.38151041666664,0)" xlink:href="#A"/></g><path d="M130 0v-134l666-991c45-67 96-135 147-202-269 9-546 3-821 5v-168h1036v136L502-379c-49 72-103 145-157 216 268-9 546-3 821-5V0H130" id="B"/><path d="M628 24c-324 0-524-230-524-574 0-343 198-582 503-582 237 0 487 146 487 559v75H286c9 234 145 362 343 362 132 0 231-58 273-172l174 48C1024-91 857 24 628 24zM287-650h624c-17-190-120-322-304-322-192 0-309 151-320 322" id="C"/><g id="d"><use transform="matrix(0.010850694444444444,0,0,0.010850694444444444,0,0)" xlink:href="#B"/><use transform="matrix(0.010850694444444444,0,0,0.010850694444444444,13.975694444444445,0)" xlink:href="#q"/><use transform="matrix(0.010850694444444444,0,0,0.010850694444444444,27.30034722222222,0)" xlink:href="#r"/><use transform="matrix(0.010850694444444444,0,0,0.010850694444444444,40.4296875,0)" xlink:href="#C"/></g><path d="M180 0v-1490h510c348 0 508 209 508 474 0 266-160 477-507 477H370V0H180zm190-706h312c236 0 327-133 327-310 0-176-91-307-329-307H370v617" id="D"/><path d="M613 24c-304 0-509-231-509-576 0-350 205-580 509-580 216 0 392 114 453 309l-173 49c-33-115-133-197-280-197-223 0-326 196-326 419 0 220 103 415 326 415 150 0 252-85 285-206l172 49C1010-95 832 24 613 24" id="E"/><g id="e"><use transform="matrix(0.010850694444444444,0,0,0.010850694444444444,0,0)" xlink:href="#D"/><use transform="matrix(0.010850694444444444,0,0,0.010850694444444444,14.192708333333332,0)" xlink:href="#u"/><use transform="matrix(0.010850694444444444,0,0,0.010850694444444444,27.332899305555554,0)" xlink:href="#y"/><use transform="matrix(0.010850694444444444,0,0,0.010850694444444444,40.939670138888886,0)" xlink:href="#t"/><use transform="matrix(0.010850694444444444,0,0,0.010850694444444444,46.32161458333333,0)" xlink:href="#x"/><use transform="matrix(0.010850694444444444,0,0,0.010850694444444444,51.70355902777778,0)" xlink:href="#E"/></g><path d="M538 24C308 24 148-78 108-271l171-41c32 123 123 178 257 178 156 0 256-77 256-169 0-77-54-128-164-154l-186-44c-203-48-300-148-300-305 0-192 176-326 414-326 230 0 351 112 402 269l-163 42c-31-80-94-158-238-158-133 0-233 69-233 162 0 83 57 129 188 160l169 40c203 48 298 149 298 302 0 196-179 339-441 339" id="F"/><g id="f"><use transform="matrix(0.010850694444444444,0,0,0.010850694444444444,0,0)" xlink:href="#F"/><use transform="matrix(0.010850694444444444,0,0,0.010850694444444444,11.729600694444445,0)" xlink:href="#u"/><use transform="matrix(0.010850694444444444,0,0,0.010850694444444444,24.869791666666664,0)" xlink:href="#y"/><use transform="matrix(0.010850694444444444,0,0,0.010850694444444444,38.4765625,0)" xlink:href="#r"/><use transform="matrix(0.010850694444444444,0,0,0.010850694444444444,51.60590277777778,0)" xlink:href="#C"/><use transform="matrix(0.010850694444444444,0,0,0.010850694444444444,64.56163194444444,0)" xlink:href="#z"/></g><path d="M180 0v-1490h908v168H370v486h669v168H370v500h727V0H180" id="G"/><path d="M154 0v-137l495-537c165-179 249-281 249-418 0-156-121-253-280-253-170 0-278 110-278 278H158c0-264 200-443 465-443 266 0 455 183 455 416 0 161-73 288-336 568L416-179v12h687V0H154" id="H"/><g id="g"><use transform="matrix(0.010850694444444444,0,0,0.010850694444444444,0,0)" xlink:href="#G"/><use transform="matrix(0.010850694444444444,0,0,0.010850694444444444,13.35720486111111,0)" xlink:href="#s"/><use transform="matrix(0.010850694444444444,0,0,0.010850694444444444,29.58984375,0)" xlink:href="#H"/></g><path d="M370-1490V0H180v-1490h190" id="I"/><path d="M158 0v-1118h174v172h12c41-113 157-188 290-188 26 0 70 2 91 3v181c-11-2-60-10-108-10-161 0-279 109-279 260V0H158" id="J"/><g id="h"><use transform="matrix(0.010850694444444444,0,0,0.010850694444444444,0,0)" xlink:href="#I"/><use transform="matrix(0.010850694444444444,0,0,0.010850694444444444,5.967881944444445,0)" xlink:href="#r"/><use transform="matrix(0.010850694444444444,0,0,0.010850694444444444,19.09722222222222,0)" xlink:href="#z"/><use transform="matrix(0.010850694444444444,0,0,0.010850694444444444,26.15017361111111,0)" xlink:href="#C"/><use transform="matrix(0.010850694444444444,0,0,0.010850694444444444,39.10590277777778,0)" xlink:href="#J"/><use transform="matrix(0.010850694444444444,0,0,0.010850694444444444,47.819010416666664,0)" xlink:href="#r"/><use transform="matrix(0.010850694444444444,0,0,0.010850694444444444,60.94835069444444,0)" xlink:href="#C"/><use transform="matrix(0.010850694444444444,0,0,0.010850694444444444,73.90407986111111,0)" xlink:href="#z"/></g><path d="M611 442c-248 0-391-105-460-228l146-94c47 65 117 165 314 165 178 0 307-82 307-266v-224h-17C863-141 792-18 576-18c-268 0-472-195-472-546 0-346 197-568 476-568 216 0 288 133 326 193h17v-179h175V29c0 289-215 413-487 413zm-5-620c203 0 314-146 314-390 0-237-108-403-314-403-213 0-319 180-319 403 0 230 109 390 319 390" id="K"/><path d="M409 0L70-1118h191c89 329 165 560 243 925 75-353 154-601 240-925h192c85 325 161 564 235 922 77-354 157-598 244-922h191L1267 0h-179c-86-307-176-590-250-913C763-588 675-308 588 0H409" id="L"/><g id="i"><use transform="matrix(0.010850694444444444,0,0,0.010850694444444444,0,0)" xlink:href="#K"/><use transform="matrix(0.010850694444444444,0,0,0.010850694444444444,13.628472222222221,0)" xlink:href="#o"/><use transform="matrix(0.010850694444444444,0,0,0.010850694444444444,26.106770833333332,0)" xlink:href="#z"/><use transform="matrix(0.010850694444444444,0,0,0.010850694444444444,33.15972222222222,0)" xlink:href="#C"/><use transform="matrix(0.010850694444444444,0,0,0.010850694444444444,45.71397569444444,0)" xlink:href="#L"/><use transform="matrix(0.010850694444444444,0,0,0.010850694444444444,63.89973958333333,0)" xlink:href="#o"/><use transform="matrix(0.010850694444444444,0,0,0.010850694444444444,76.0525173611111,0)" xlink:href="#A"/></g><path d="M600 0L52-1490h200c166 485 304 806 458 1336 156-533 285-846 449-1336h202L819 0H600" id="M"/><g id="j"><use transform="matrix(0.010850694444444444,0,0,0.010850694444444444,0,0)" xlink:href="#M"/><use transform="matrix(0.010850694444444444,0,0,0.010850694444444444,15.33203125,0)" xlink:href="#D"/><use transform="matrix(0.010850694444444444,0,0,0.010850694444444444,29.524739583333332,0)" xlink:href="#s"/></g><path d="M180 0v-1490h510c348 0 508 194 508 460 0 198-88 351-276 417L1256 0h-220L726-579c-117 2-238 0-356 1V0H180zm190-747h312c235 0 327-108 327-283 0-177-92-293-329-293H370v576" id="N"/><g id="k"><use transform="matrix(0.010850694444444444,0,0,0.010850694444444444,0,0)" xlink:href="#N"/><use transform="matrix(0.010850694444444444,0,0,0.010850694444444444,13.975694444444445,0)" xlink:href="#q"/><use transform="matrix(0.010850694444444444,0,0,0.010850694444444444,27.30034722222222,0)" xlink:href="#u"/><use transform="matrix(0.010850694444444444,0,0,0.010850694444444444,40.44053819444444,0)" xlink:href="#z"/><use transform="matrix(0.010850694444444444,0,0,0.010850694444444444,47.49348958333333,0)" xlink:href="#C"/><use transform="matrix(0.010850694444444444,0,0,0.010850694444444444,60.44921875,0)" xlink:href="#J"/></g><g id="l"><use transform="matrix(0.010850694444444444,0,0,0.010850694444444444,0,0)" xlink:href="#M"/><use transform="matrix(0.010850694444444444,0,0,0.010850694444444444,15.33203125,0)" xlink:href="#D"/><use transform="matrix(0.010850694444444444,0,0,0.010850694444444444,29.524739583333332,0)" xlink:href="#s"/></g></defs></g></svg>