<svg xmlns="http://www.w3.org/2000/svg" xmlns:xlink="http://www.w3.org/1999/xlink" width="912pt" height="352pt" viewBox="0.00 0.00 912.00 352.00">
<g id="graph0" class="graph" transform="scale(1 1) rotate(0) translate(4 348)">
<title>G</title>
<polygon fill="white" stroke="none" points="-4,4 -4,-348 907.75,-348 907.75,4 -4,4"/>
<g id="clust1" class="cluster">
<title>cluster_module.ec2</title>
<polygon fill="none" stroke="black" points="421.06,-205 421.06,-336 876.7,-336 876.7,-205 421.06,-205"/>
<text xml:space="preserve" text-anchor="middle" x="648.88" y="-319.4" font-family="sans-serif" font-size="14.00">module.ec2</text>
</g>
<g id="clust2" class="cluster">
<title>cluster_module.sg</title>
<polygon fill="none" stroke="black" points="198.97,-167 198.97,-244 359.67,-244 359.67,-167 198.97,-167"/>
<text xml:space="preserve" text-anchor="middle" x="279.32" y="-227.4" font-family="sans-serif" font-size="14.00">module.sg</text>
</g>
<g id="clust3" class="cluster">
<title>cluster_module.vpc</title>
<polygon fill="none" stroke="black" points="8,-8 8,-159 895.75,-159 895.75,-8 8,-8"/>
<text xml:space="preserve" text-anchor="middle" x="451.87" y="-142.4" font-family="sans-serif" font-size="14.00">module.vpc</text>
</g>
<!-- module.ec2.data.aws_ami.ubuntu -->
<g id="node1" class="node">
<title>module.ec2.data.aws_ami.ubuntu</title>
<polygon fill="none" stroke="black" points="610.28,-249 475.31,-249 475.31,-213 610.28,-213 610.28,-249"/>
<text xml:space="preserve" text-anchor="middle" x="542.79" y="-226.8" font-family="sans-serif" font-size="14.00">data.aws_ami.ubuntu</text>
</g>
<!-- module.ec2.data.aws_availability_zones.available -->
<g id="node2" class="node">
<title>module.ec2.data.aws_availability_zones.available</title>
<polygon fill="none" stroke="black" points="656.53,-303 429.06,-303 429.06,-267 656.53,-267 656.53,-303"/>
<text xml:space="preserve" text-anchor="middle" x="542.79" y="-280.8" font-family="sans-serif" font-size="14.00">data.aws_availability_zones.available</text>
</g>
<!-- module.ec2.aws_instance.web -->
<g id="node3" class="node">
<title>module.ec2.aws_instance.web</title>
<polygon fill="none" stroke="black" points="848.87,-249 731.41,-249 731.41,-213 848.87,-213 848.87,-249"/>
<text xml:space="preserve" text-anchor="middle" x="790.14" y="-226.8" font-family="sans-serif" font-size="14.00">aws_instance.web</text>
</g>
<!-- module.ec2.aws_instance.web&#45;&gt;module.ec2.data.aws_ami.ubuntu -->
<g id="edge1" class="edge">
<title>module.ec2.aws_instance.web-&gt;module.ec2.data.aws_ami.ubuntu</title>
<path fill="none" stroke="black" d="M731,-231C698.39,-231 657.28,-231 621.9,-231"/>
<polygon fill="black" stroke="black" points="622.14,-227.5 612.14,-231 622.14,-234.5 622.14,-227.5"/>
</g>
<!-- module.ec2.aws_instance.web&#45;&gt;module.ec2.data.aws_availability_zones.available -->
<g id="edge2" class="edge">
<title>module.ec2.aws_instance.web-&gt;module.ec2.data.aws_availability_zones.available</title>
<path fill="none" stroke="black" d="M731,-243.8C703.36,-249.88 669.62,-257.31 638.44,-264.17"/>
<polygon fill="black" stroke="black" points="638.02,-260.68 629,-266.25 639.52,-267.51 638.02,-260.68"/>
</g>
<!-- module.sg.aws_security_group.sg -->
<g id="node5" class="node">
<title>module.sg.aws_security_group.sg</title>
<polygon fill="none" stroke="black" points="351.67,-211 206.97,-211 206.97,-175 351.67,-175 351.67,-211"/>
<text xml:space="preserve" text-anchor="middle" x="279.32" y="-188.8" font-family="sans-serif" font-size="14.00">aws_security_group.sg</text>
</g>
<!-- module.ec2.aws_instance.web&#45;&gt;module.sg.aws_security_group.sg -->
<g id="edge3" class="edge">
<title>module.ec2.aws_instance.web-&gt;module.sg.aws_security_group.sg</title>
<path fill="none" stroke="black" d="M731.06,-216.93C708,-211.93 681.15,-206.85 656.53,-204 556.2,-192.41 439.88,-190.8 363.46,-191.35"/>
<polygon fill="black" stroke="black" points="363.49,-187.85 353.52,-191.44 363.55,-194.85 363.49,-187.85"/>
</g>
<!-- module.vpc.aws_subnet.my_subnets -->
<g id="node10" class="node">
<title>module.vpc.aws_subnet.my_subnets</title>
<polygon fill="none" stroke="black" points="618.65,-116 466.94,-116 466.94,-80 618.65,-80 618.65,-116"/>
<text xml:space="preserve" text-anchor="middle" x="542.79" y="-93.8" font-family="sans-serif" font-size="14.00">aws_subnet.my_subnets</text>
</g>
<!-- module.ec2.aws_instance.web&#45;&gt;module.vpc.aws_subnet.my_subnets -->
<g id="edge4" class="edge">
<title>module.ec2.aws_instance.web-&gt;module.vpc.aws_subnet.my_subnets</title>
<path fill="none" stroke="black" d="M755.02,-212.51C711.35,-188.83 635.63,-147.78 587.7,-121.8"/>
<polygon fill="black" stroke="black" points="589.41,-118.75 578.95,-117.06 586.07,-124.9 589.41,-118.75"/>
</g>
<!-- module.ec2.aws_key_pair.public&#45;key -->
<g id="node4" class="node">
<title>module.ec2.aws_key_pair.public-key</title>
<polygon fill="none" stroke="black" points="868.7,-303 711.58,-303 711.58,-267 868.7,-267 868.7,-303"/>
<text xml:space="preserve" text-anchor="middle" x="790.14" y="-280.8" font-family="sans-serif" font-size="14.00">aws_key_pair.public-key</text>
</g>
<!-- module.vpc.aws_vpc.my_vpc -->
<g id="node11" class="node">
<title>module.vpc.aws_vpc.my_vpc</title>
<polygon fill="none" stroke="black" points="129.59,-126 16,-126 16,-90 129.59,-90 129.59,-126"/>
<text xml:space="preserve" text-anchor="middle" x="72.79" y="-103.8" font-family="sans-serif" font-size="14.00">aws_vpc.my_vpc</text>
</g>
<!-- module.sg.aws_security_group.sg&#45;&gt;module.vpc.aws_vpc.my_vpc -->
<g id="edge5" class="edge">
<title>module.sg.aws_security_group.sg-&gt;module.vpc.aws_vpc.my_vpc</title>
<path fill="none" stroke="black" d="M206.65,-177.16C192.79,-173.2 178.55,-168.48 165.59,-163 146.14,-154.78 125.86,-143.01 109.32,-132.47"/>
<polygon fill="black" stroke="black" points="111.61,-129.78 101.32,-127.27 107.8,-135.65 111.61,-129.78"/>
</g>
<!-- module.vpc.data.aws_availability_zones.available -->
<g id="node6" class="node">
<title>module.vpc.data.aws_availability_zones.available</title>
<polygon fill="none" stroke="black" points="393.06,-106 165.59,-106 165.59,-70 393.06,-70 393.06,-106"/>
<text xml:space="preserve" text-anchor="middle" x="279.32" y="-83.8" font-family="sans-serif" font-size="14.00">data.aws_availability_zones.available</text>
</g>
<!-- module.vpc.aws_internet_gateway.igw -->
<g id="node7" class="node">
<title>module.vpc.aws_internet_gateway.igw</title>
<polygon fill="none" stroke="black" points="362.16,-52 196.49,-52 196.49,-16 362.16,-16 362.16,-52"/>
<text xml:space="preserve" text-anchor="middle" x="279.32" y="-29.8" font-family="sans-serif" font-size="14.00">aws_internet_gateway.igw</text>
</g>
<!-- module.vpc.aws_internet_gateway.igw&#45;&gt;module.vpc.aws_vpc.my_vpc -->
<g id="edge6" class="edge">
<title>module.vpc.aws_internet_gateway.igw-&gt;module.vpc.aws_vpc.my_vpc</title>
<path fill="none" stroke="black" d="M196.05,-51.28C185.68,-54.16 175.31,-57.41 165.59,-61 148.51,-67.32 130.51,-76.03 115.02,-84.25"/>
<polygon fill="black" stroke="black" points="113.69,-80.98 106.57,-88.82 117.03,-87.14 113.69,-80.98"/>
</g>
<!-- module.vpc.aws_route_table.rtb -->
<g id="node8" class="node">
<title>module.vpc.aws_route_table.rtb</title>
<polygon fill="none" stroke="black" points="606.19,-57 479.4,-57 479.4,-21 606.19,-21 606.19,-57"/>
<text xml:space="preserve" text-anchor="middle" x="542.79" y="-34.8" font-family="sans-serif" font-size="14.00">aws_route_table.rtb</text>
</g>
<!-- module.vpc.aws_route_table.rtb&#45;&gt;module.vpc.aws_internet_gateway.igw -->
<g id="edge7" class="edge">
<title>module.vpc.aws_route_table.rtb-&gt;module.vpc.aws_internet_gateway.igw</title>
<path fill="none" stroke="black" d="M479.17,-37.8C447.54,-37.2 408.53,-36.45 373.47,-35.78"/>
<polygon fill="black" stroke="black" points="373.82,-32.29 363.75,-35.6 373.68,-39.29 373.82,-32.29"/>
</g>
<!-- module.vpc.aws_route_table_association.rta -->
<g id="node9" class="node">
<title>module.vpc.aws_route_table_association.rta</title>
<polygon fill="none" stroke="black" points="887.75,-86 692.53,-86 692.53,-50 887.75,-50 887.75,-86"/>
<text xml:space="preserve" text-anchor="middle" x="790.14" y="-63.8" font-family="sans-serif" font-size="14.00">aws_route_table_association.rta</text>
</g>
<!-- module.vpc.aws_route_table_association.rta&#45;&gt;module.vpc.aws_route_table.rtb -->
<g id="edge8" class="edge">
<title>module.vpc.aws_route_table_association.rta-&gt;module.vpc.aws_route_table.rtb</title>
<path fill="none" stroke="black" d="M692.17,-56.54C667.42,-53.61 641.22,-50.52 617.82,-47.75"/>
<polygon fill="black" stroke="black" points="618.43,-44.3 608.09,-46.6 617.61,-51.25 618.43,-44.3"/>
</g>
<!-- module.vpc.aws_route_table_association.rta&#45;&gt;module.vpc.aws_subnet.my_subnets -->
<g id="edge9" class="edge">
<title>module.vpc.aws_route_table_association.rta-&gt;module.vpc.aws_subnet.my_subnets</title>
<path fill="none" stroke="black" d="M692.17,-79.86C671.7,-82.36 650.23,-84.99 630.17,-87.44"/>
<polygon fill="black" stroke="black" points="629.88,-83.95 620.38,-88.64 630.73,-90.9 629.88,-83.95"/>
</g>
<!-- module.vpc.aws_subnet.my_subnets&#45;&gt;module.vpc.data.aws_availability_zones.available -->
<g id="edge10" class="edge">
<title>module.vpc.aws_subnet.my_subnets-&gt;module.vpc.data.aws_availability_zones.available</title>
<path fill="none" stroke="black" d="M466.52,-95.12C447.21,-94.38 425.92,-93.57 404.84,-92.76"/>
<polygon fill="black" stroke="black" points="405.15,-89.27 395.02,-92.39 404.88,-96.27 405.15,-89.27"/>
</g>
<!-- module.vpc.aws_subnet.my_subnets&#45;&gt;module.vpc.aws_vpc.my_vpc -->
<g id="edge11" class="edge">
<title>module.vpc.aws_subnet.my_subnets-&gt;module.vpc.aws_vpc.my_vpc</title>
<path fill="none" stroke="black" d="M466.65,-108.27C443.14,-111.03 417.06,-113.63 393.06,-115 292.13,-120.75 266.61,-118.85 165.59,-115 157.77,-114.7 149.59,-114.26 141.47,-113.75"/>
<polygon fill="black" stroke="black" points="141.79,-110.26 131.58,-113.07 141.32,-117.24 141.79,-110.26"/>
</g>
</g>
</svg>